<svg width="24" height="24" xmlns="http://www.w3.org/2000/svg" viewBox="0 0 24 24" fill="none"><path fill="#fff" d="M9.246 2.9545a.844.844 0 0 0-.9855.2824l-5.1616 6.9482a.8603.8603 0 0 0-.1597.6412l1.3489 8.574c.0593.3808.3628.6751.743.7181l8.551 1.0233a.8453.8453 0 0 0 .6366-.1836l6.6927-5.459c.2942-.2412.393-.65.2427-1.0002L17.7656 6.52a.8501.8501 0 0 0-.477-.4581Zm-.0082 1.8169 7.1106 2.7562 2.9944 7.0474-5.9129 4.8333-7.5647-.909-1.1904-7.5816Z" class="fills"/><path fill="#fff" d="m11.458 9.3606 1.2188.471a2.4906 2.4906 0 0 1 1.3925 1.3497l.6228 1.4652c.2151.5051.0708 1.093-.3532 1.439l-.745.6076a3.939 3.939 0 0 1-2.962.861l-.9732-.1173c-.529-.0636-.9514-.4728-1.0344-1.0025l-.1516-.9615c-.1687-1.0736.0998-2.1698.7465-3.04l.3997-.537c.4255-.573 1.1765-.7912 1.8391-.5352Z" class="fills"/></svg>