<svg width="24" height="24" xmlns="http://www.w3.org/2000/svg" viewBox="0 0 24 24" fill="none"><path fill="#495057" d="M12.0188 2.996c-1.6064.0974-3.3235.6788-5.0195 1.971-3.8526 2.9362-4.5703 6.3923-4.001 9.1684.5693 2.776 2.2478 4.8646 3.1079 5.684.9797.9333 2.5752 1.3467 4.0376.9965.732-.1748 1.4434-.5856 1.9045-1.2844.4624-.6986.6453-1.636.4947-2.7682-.311-2.3396 1.6306-3.8556 3.344-3.3514 1.3637.4013 2.8078.0305 3.8535-.8046 1.0464-.8341 1.7107-2.2257 1.3362-3.7205-.2015-.8046-.744-1.6748-1.543-2.5615-.799-.8863-1.8638-1.7593-3.1372-2.3992-1.2735-.6395-2.77-1.0274-4.3777-.93Zm.096 1.3805c1.328-.0766 2.5551.2634 3.6467.812 1.0918.5486 2.0283 1.325 2.7165 2.089.6895.7645 1.123 1.5475 1.2254 1.9563.2346.9328-.1402 1.707-.8416 2.2662-.7004.5596-1.7107.8065-2.5688.5536-2.7266-.8023-5.5808 1.6735-5.1526 4.8942.1181.8891-.034 1.4473-.2732 1.8087-.2388.3617-.5943.5761-1.0554.6864-.922.2206-2.2166-.1592-2.724-.6421-.6256-.5962-2.2184-2.5893-2.7018-4.946-.4824-2.3561-.0405-5.083 3.4697-7.7584 1.5012-1.1433 2.9324-1.643 4.259-1.72Z" class="fills"/><circle cx="15.8362" cy="8.5984" r="1.9238" fill="#495057" class="fills"/><circle cx="11.1383" cy="7.2302" r="1.6365" fill="#495057" class="fills"/><circle cx="7.8463" cy="11.6598" r="2.3395" fill="#495057" class="fills"/><circle cx="8.5909" cy="16.422" r="1.3871" fill="#495057" class="fills"/><path fill="#495057" d="M12.6167 9.8539a.7104.7104 0 0 0-.487.244l-.7825.9154c-.254.2957-.2205.7413.074.9966.296.2536.7416.221.9965-.074l.7896-.908a.707.707 0 0 0 .1726-.517.7085.7085 0 0 0-.2464-.4869.7072.7072 0 0 0-.5168-.1696Z" class="fills"/></svg>