<svg width="24" height="24" xmlns="http://www.w3.org/2000/svg" viewBox="0 0 24 24" fill="none"> <g fill="#ced4da">
<path d="M18.7327 21.9214c1.7514 0 3.19-1.4386 3.19-3.1894V5.267c0-1.751-1.4386-3.1817-3.19-3.1817H5.2607c-1.7512 0-3.1816 1.4307-3.1816 3.1817v13.465c0 1.7508 1.4304 3.1894 3.1816 3.1894Zm0-1.469h-6.031a.7303.7303 0 0 0 .0451-.2224V3.5465h5.9859c.9643 0 1.721.7566 1.721 1.7205v13.465c0 .9637-.7567 1.7204-1.721 1.7204Zm-7.441 0h-6.031c-.964 0-1.719-.7567-1.719-1.7204v-6.3692h7.7049V20.23a.764.764 0 0 0 .0451.2224Zm-.0451-9.5798H3.5417V5.267c0-.9639.755-1.7205 1.719-1.7205h5.9859Z"/>
</g>
</svg>