<svg width="24" height="24" xmlns="http://www.w3.org/2000/svg" viewBox="0 0 24 24" fill="currentColor"><path fill="currentColor" d="M5.8882 4.007h8.0002a.6392.6392 0 0 1 .5906.399.653.653 0 0 1-.1387.705l-9.3037 9.4165a.5285.5285 0 0 1-.5813.1168.5395.5395 0 0 1-.3303-.4993V5.791c0-.4729.1863-.9269.5166-1.2618a1.7512 1.7512 0 0 1 1.2466-.5222Z" class="fills" color="currentColor" color-interpolation="srgb" color-interpolation-filters="linearrgb" font-family="sans-serif" font-weight="400" overflow="visible" style="text-decoration-color:currentColor;isolation:auto;text-transform:none;font-variation-settings:normal;font-feature-settings:normal;text-indent:0;text-orientation:mixed;white-space:normal;text-align:start;line-height:normal;inline-size:0;text-decoration-style:solid;shape-margin:0;text-decoration-line:none"/><path fill="currentColor" d="M17.5222 6.03c-.4348-.4115-1.1213-.3945-1.5354.0377l-9.434 9.8992a1.0945 1.0945 0 0 0-.2984.7807c.0085.2896.132.5637.3428.7622.4353.412 1.1208.395 1.5351-.0378l9.4341-9.9066c.4107-.4369.3904-1.1225-.0442-1.5354Z" class="fills"/><circle cx="19.6305" cy="12.1721" r="1.865" fill="currentColor" class="fills" transform="matrix(.71879 -.69523 .68657 .72706 -2.8366 16.97)"/><circle cx="15.8532" cy="15.9939" r="1.865" fill="currentColor" class="fills" transform="matrix(.71879 -.69523 .68657 .72706 -6.5228 15.387)"/><circle cx="12.0758" cy="19.8157" r="1.865" fill="currentColor" class="fills" transform="matrix(.71879 -.69523 .68657 .72706 -10.209 13.804)"/></svg>