<svg width="24" height="24" xmlns="http://www.w3.org/2000/svg" viewBox="0 0 24 24" fill="none"> <g fill="#495057">
<path d="M12.1296 1.7502c-1.3054 0-2.4985.4582-3.3586 1.2518H3.6262a.6122.6122 0 0 0-.6128.6112v15.7753a.6072.6072 0 0 0 .179.4338.611.611 0 0 0 .4338.1794h16.7705a.612.612 0 0 0 .4329-.18.6151.6151 0 0 0 .179-.4332V3.6132a.6126.6126 0 0 0-.6119-.6112h-5.177c-.7732-.7511-1.8388-1.2518-3.09-1.2518ZM4.2378 4.2263h3.617c-.2703.551-.4283 1.1757-.4356 1.8617-.0083.7233.2888 1.5275.6948 2.3823.406.8555.9358 1.7477 1.469 2.5649 1.0676 1.6336 2.1406 2.9647 2.1406 2.9647.1863.232.5498.2481.7593.0342 0 0 1.0271-1.0627 2.0606-2.5763 2.3369-3.4225 2.0556-5.2365 2.0075-5.7089-.0415-.519-.1909-1.038-.4336-1.5216h3.666v11.0723c-.3479.0438-.6181.34-.6164.7013-.0017.3607.2685.6588.6164.703v2.0744H4.2378v-2.0688c.0295.0013.06 0 .0915 0 .3885.0305.7022-.3197.7012-.7086.001-.389-.3147-.7558-.7012-.7073a.9843.9843 0 0 0-.0915.0036Zm7.7654.055c1.1562 0 2.0937.9375 2.0937 2.0937 0 1.1565-.9375 2.0935-2.0937 2.0935-1.156 0-2.0935-.937-2.0935-2.0935 0-1.1563.9375-2.0938 2.0935-2.0938Z"/>
<path d="M14.2205 15.2921a.7077.7077 0 0 0-.7088.7088c-.0007.3917.3176.71.7088.7086h1.4099a.7058.7058 0 0 0 .7085-.7086c.0017-.3918-.3167-.7096-.7085-.7088Z"/>
<path d="M8.5662 15.2921a.7077.7077 0 0 0-.7088.7088c-.0007.3917.3176.71.7088.7086H9.976a.7057.7057 0 0 0 .7087-.7086c.0017-.3918-.3164-.7096-.7087-.7088Z"/>
</g>
</svg>
