<svg width="24" height="24" xmlns="http://www.w3.org/2000/svg" viewBox="0 0 24 24" fill="currentColor">
  <path d="M3.9954 2.2813c-.1414-.0064-.2808.0158-.4043.0664-.3291.1346-.5977.4926-.5977.8925v15.4141c0 1.3077 1.0772 2.3848 2.3848 2.3848h13.7011c.659 0 1.2093-.4306 1.4317-.961.2224-.5302.1355-1.2193-.3262-1.6894L7.6497 5.619v-.002a.7443.7443 0 0 0-.1172-.1464.7462.7462 0 0 0-.129-.1016L4.6478 2.5605c-.175-.1783-.4165-.2685-.6523-.2793Zm.496 2.2578L5.933 6.0078l-.459.459a.7504.7504 0 0 0 0 1.0625.75.75 0 0 0 1.0547 0l.455-.4512 1.7872 1.8203-1.7696 1.7676a.7499.7499 0 0 0-.2214.5322c0 .1999.0796.3915.2214.5323a.7502.7502 0 0 0 1.0645 0l1.7578-1.7598 2.373 2.416-3.4004 3.373a.7497.7497 0 0 0-.0078 1.0645.7493.7493 0 0 0 .5298.2237.7507.7507 0 0 0 .5327-.2176l3.3985-3.371 2.0957 2.1366-.873.873a.7496.7496 0 0 0 0 1.0626.7504.7504 0 0 0 1.0625 0l.8613-.8672 2.7187 2.7715c.0396.0402.0271.0402.0154.0684-.0117.0283.0056.0294-.0508.0294H5.3779c-.497 0-.8867-.3819-.8867-.879Z"/>
</svg>