<svg width="24" height="24" xmlns="http://www.w3.org/2000/svg" viewBox="0 0 24 24" fill="none"><path fill="#495057" d="M8.3555 3.3262a.8515.8515 0 0 0-.7991.6565l-.8479 3.6388a.85.85 0 0 0 .1235.6707.8536.8536 0 0 0 .578.364l3.4528.5372a.847.847 0 0 0 .6338-.1514.8504.8504 0 0 0 .3415-.5555.8578.8578 0 0 0-.1513-.634.8538.8538 0 0 0-.5564-.3409l-1.8262-.2847c2.7627-1.4804 6.2192-.6736 7.988 1.953 1.889 2.8024 1.1333 6.5962-1.704 8.504-2.8367 1.9086-6.6458 1.1774-8.5338-1.625-.788-1.1691-1.11-2.5093-1.0178-3.8165.0335-.4664-.3164-.8724-.7832-.9083a.8509.8509 0 0 0-.6181.207.8552.8552 0 0 0-.2898.5843c-.1182 1.6692.2951 3.397 1.299 4.8867 2.4058 3.571 7.3028 4.4997 10.8968 2.0821 3.594-2.4165 4.5676-7.296 2.1618-10.8675-1.2031-1.7854-3.0237-2.9075-4.9966-3.285-1.5722-.3007-3.2397-.124-4.7614.5722l.2658-1.1465a.8513.8513 0 0 0-.6347-1.0196.8706.8706 0 0 0-.2207-.0226Z" class="fills"/></svg>