<svg width="24" height="24" xmlns="http://www.w3.org/2000/svg" viewBox="0 0 24 24" fill="none">
  <g fill="#fff">
    <path d="M12.0027 2.9987c-4.9607 0-8.9985 4.0374-8.9985 8.9985 0 4.9612 4.0378 8.9985 8.9985 8.9985 4.9614 0 8.9985-4.0373 8.9985-8.9985 0-4.961-4.037-8.9985-8.9985-8.9985Zm0 1.469c4.169 0 7.5295 3.361 7.5295 7.5295 0 4.1684-3.3606 7.537-7.5295 7.537-4.168 0-7.5371-3.3686-7.5371-7.537 0-4.1685 3.3691-7.5294 7.537-7.5294Z"/>
    <path d="M15.1719 8.3983a.7558.7558 0 0 0-.4795.3247l-3.2976 4.9722-2.1985-2.0656a.7545.7545 0 0 0-.5422-.2033.754.754 0 0 0-.5274.241.7553.7553 0 0 0 .0369 1.0624l2.8476 2.678a.7586.7586 0 0 0 .603.1978.755.755 0 0 0 .5403-.331L15.954 9.557a.7571.7571 0 0 0 .1108-.568.7582.7582 0 0 0-.8928-.5902Z"/>
  </g>
</svg>