<svg width="24" height="24" xmlns="http://www.w3.org/2000/svg" viewBox="0 0 24 24" fill="none"><path fill="#495057" d="m3.9558 15.7764 5.3804-4.8084-.0618-7.0138H5.565c-.8867-.0018-1.6074.7147-1.609 1.6015ZM19.9304 12.1459l-8.3142 7.7828h6.7102c.8867-.0018 1.6057-.7225 1.604-1.6092Z" class="fills"/><path fill="#495057" d="m11.013 8.3608.0285 2.9762a.848.848 0 0 1-.2869.641l-6.7988 6.0835v.258c-.002.8894.7197 1.6115 1.6091 1.6092h3.5664L19.9304 9.8154v-1.455ZM10.9714 3.9542l.0257 2.7093h8.9333V5.5557c-.0022-.8836-.72-1.5996-1.604-1.6015Z" class="fills"/></svg>