<svg width="24" height="24" xmlns="http://www.w3.org/2000/svg" viewBox="0 0 24 24" fill="none">
  <g fill="#ced4da">
    <path d="M12.0027 2.9987c-4.9607 0-8.9985 4.0374-8.9985 8.9985 0 4.9612 4.0378 8.9985 8.9985 8.9985 4.9614 0 8.9985-4.0373 8.9985-8.9985 0-4.961-4.037-8.9985-8.9985-8.9985Zm0 1.469c4.169 0 7.5295 3.361 7.5295 7.5295 0 4.1684-3.3606 7.537-7.5295 7.537-4.168 0-7.5371-3.3686-7.5371-7.537 0-4.1685 3.3691-7.5294 7.537-7.5294Z"/>
    <path d="M11.99 11.1204c-.2952-.0024-.5781.106-.7866.3001-.2076.1946-.3238.4584-.3218.7327v3.814c.0017.2725.1189.533.3274.7245.2073.1912.4885.2978.781.2958.602-.0031 1.0908-.4582 1.0935-1.0202v-3.8141c.002-.272-.1116-.534-.3171-.728-.2056-.1936-.4852-.3034-.7764-.3048Z"/>
    <ellipse cx="12.003" cy="8.2158" rx="1.2967" ry="1.2094"/>
  </g>
</svg>