<svg width="24" height="24" xmlns="http://www.w3.org/2000/svg" viewBox="0 0 24 24" fill="currentColor"> <path d="M5.2673 2.0786c-1.7514 0-3.19 1.4386-3.19 3.1895v13.465c0 1.751 1.4386 3.1816 3.19 3.1816h13.472c1.7512 0 3.1816-1.4307 3.1816-3.1816V5.268c0-1.7509-1.4304-3.1895-3.1816-3.1895Zm0 1.469h6.031a.7303.7303 0 0 0-.0451.2224v16.6835H5.2673c-.9643 0-1.721-.7566-1.721-1.7204V5.268c0-.9638.7567-1.7205 1.721-1.7205Zm7.441 0h6.031c.964 0 1.719.7567 1.719 1.7205v6.3691h-7.7049V3.77a.764.764 0 0 0-.0451-.2224Zm.0451 9.5799h7.7049v5.6056c0 .9638-.755 1.7204-1.719 1.7204h-5.9859Z"/>
</svg>