<svg width="24" height="24" xmlns="http://www.w3.org/2000/svg" viewBox="0 0 24 24" fill="none"> <g fill="#495057">
<path d="M11.999 6.153c-3.2221 0-5.8464 2.6256-5.8464 5.8474 0 3.039 2.3345 5.5452 5.303 5.8205l.0332.0412.0434-.0342c.154.0115.3091.019.4668.019s.3137-.0075.4688-.019l.0405.0342.0352-.0412c2.9675-.2763 5.3012-2.7824 5.3012-5.8205 0-3.2218-2.6242-5.8474-5.8457-5.8474Zm.0037 1.2263.0112.0153c.3367.3972.6338.9056.8692 1.4962l-1.7635.0036c.2373-.5919.5345-1.1021.8711-1.4998Zm-1.4846.1462c-.2417.4167-.4466.878-.6136 1.3713L8.454 8.899c.5463-.6266 1.2548-1.1073 2.0642-1.3736Zm2.9685.0042c.8017.2644 1.5039.7396 2.0493 1.3573l-1.4395.002c-.166-.4892-.37-.9459-.6098-1.3593Zm2.7893 2.4918c.2031.4379.3425.9113.4023 1.4104l-2.0991.0075a10.1779 10.1779 0 0 0-.1819-1.4123Zm-3.0432.008c.1025.4456.1736.9185.2048 1.4117l-2.878.0078a8.7243 8.7243 0 0 1 .2069-1.414Zm-3.629.0073c-.0895.4544-.1523.926-.1791 1.414l-2.1001.0075c.058-.5006.1965-.9759.3967-1.416Zm7.0765 2.5352a4.7056 4.7056 0 0 1-.4043 1.416l-1.8611.0036c.0867-.4535.144-.9269.168-1.414Zm-3.2361.0074a8.9544 8.9544 0 0 1-.1939 1.414l-2.5014.0038a8.8478 8.8478 0 0 1-.1956-1.4119Zm-4.0232.0078c.024.4863.0803.9592.168 1.4122l-1.8538.0038a4.7098 4.7098 0 0 1-.4087-1.4104Zm6.1086 2.539a4.7131 4.7131 0 0 1-1.9838 1.3263c.226-.405.417-.8502.574-1.3245Zm-2.6189.0036c-.2407.622-.5461 1.157-.8967 1.5705l-.0093.0115h-.0036l-.0103-.0115c-.3496-.4124-.657-.9462-.8987-1.5664Zm-3.0256.008c.157.4728.3489.9162.575 1.3199-.7705-.2644-1.4468-.7244-1.9766-1.3182Z"/>
<path d="M11.999 2.432c-5.1174 0-9.303 4.0305-9.555 9.0862l-.8322-.8323a.5667.5667 0 0 0-.8047 0 .5684.5684 0 0 0 0 .805l1.8086 1.8009a.5682.5682 0 0 0 .7974 0l1.802-1.8008a.565.565 0 0 0 .168-.4024.5653.5653 0 0 0-.168-.4027.5667.5667 0 0 0-.7981 0l-.8425.842c.2446-4.4462 3.916-7.965 8.4245-7.965 3.191 0 5.961 1.7703 7.3958 4.377a.5679.5679 0 0 0 .3423.2722.5677.5677 0 0 0 .4338-.0512.568.568 0 0 0 .2205-.7678c-1.6287-2.9578-4.7825-4.961-8.3924-4.961Zm9.0171 8.086a.5701.5701 0 0 0-.4023.168l-1.8023 1.8006a.5648.5648 0 0 0-.1677.4023c0 .1514.0598.2963.1677.4024a.5651.5651 0 0 0 .4024.1675c.1504 0 .2954-.0601.4023-.1675l.8047-.8084c-.25 4.4407-3.918 7.955-8.4219 7.955-3.1289 0-5.85-1.6997-7.3088-4.2225a.5652.5652 0 0 0-.3452-.2643.5637.5637 0 0 0-.43.0571.5644.5644 0 0 0-.2629.3452.5602.5602 0 0 0 .0581.43c1.6543 2.8627 4.7493 4.7912 8.2888 4.7912 5.1314 0 9.3335-4.0586 9.5642-9.135l.8518.8517a.5646.5646 0 0 0 .4021.1675c.1514 0 .2964-.0601.4024-.1675a.5663.5663 0 0 0 .167-.4024.5672.5672 0 0 0-.167-.4023l-1.801-1.8007a.5651.5651 0 0 0-.4024-.168Z"/>
</g>
</svg>