<svg width="24" height="24" xmlns="http://www.w3.org/2000/svg" viewBox="0 0 24 24" fill="none"><path fill="#fff" d="M11.326 3.9875c-.3101.055-.5.275-.4263.4942l1.5998 4.7401-9.6443 1.6816.0452 2.6228 9.697 1.2287-1.5915 4.6326c-.074.2132.0634.4343.3347.5412.2712.107.6108.0748.8305-.0802l9.0567-6.371c.5295-.3724.8276-.8775.8276-1.404 0-.5269-.298-1.0321-.8276-1.4044l-9.3455-6.5745c-.1457-.102-.3572-.143-.5564-.1075Z" class="fills" color="#fff" color-interpolation="srgb" color-interpolation-filters="linearrgb" font-family="sans-serif" font-weight="400" overflow="visible" style="text-decoration-color:#fff;isolation:auto;text-transform:none;font-variation-settings:normal;font-feature-settings:normal;text-indent:0;text-orientation:mixed;white-space:normal;text-align:start;line-height:normal;inline-size:0;text-decoration-style:solid;shape-margin:0;text-decoration-line:none"/><g stroke-linecap="round" stroke-linejoin="round" class="strokes" color="#fff" color-interpolation="srgb" color-interpolation-filters="linearrgb" font-family="sans-serif" font-weight="400" style="text-decoration-color:#fff;isolation:auto;text-transform:none;font-variation-settings:normal;font-feature-settings:normal;text-indent:0;text-orientation:mixed;white-space:normal;text-align:start;line-height:normal;inline-size:0;text-decoration-style:solid;shape-margin:0;text-decoration-line:none"><g class="inner-stroke-shape"><defs><clipPath id="b"><use href="#a"/></clipPath><path id="a" fill="none" stroke="#fff" stroke-opacity="1" stroke-width="2" d="M11.326 3.9875c-.3101.055-.5.275-.4263.4942l1.5998 4.7401-9.6443 1.6816.0452 2.6228 9.697 1.2287-1.5915 4.6326c-.074.2132.0634.4343.3347.5412.2712.107.6108.0748.8305-.0802l9.0567-6.371c.5295-.3724.8276-.8775.8276-1.404 0-.5269-.298-1.0321-.8276-1.4044l-9.3455-6.5745c-.1457-.102-.3572-.143-.5564-.1075Z"/></defs><use clip-path="url('#b')" href="#a"/></g></g></svg>