<svg width="24" height="24" xmlns="http://www.w3.org/2000/svg" viewBox="0 0 24 24" fill="none">
  <g fill="#000">
    <path d="m8.7932 2.341-.023.0114a.5805.5805 0 0 0-.0295.002L2.5906 4.0516a.6957.6957 0 0 0-.5159.6718v13.5979a.696.696 0 0 0 .885.6717l5.9646-1.6466 3.525.973c.0653.1086.128.2197.1935.3262 1.0667 1.7404 2.1409 3.16 2.1409 3.16.1863.2473.5498.2643.7593.0378 0 0 1.027-1.1336 2.0605-2.746.2012-.3142.3775-.6095.5418-.8983l3.269-.9025a.6955.6955 0 0 0 .5095-.6717V3.0269a.6958.6958 0 0 0-.8784-.6717L15.078 3.9995 9.1096 2.3552c-.01-.0008-.0193-.0018-.0293-.0018a.6862.6862 0 0 0-.1543-.0078.6617.6617 0 0 0-.1328-.0037Zm-.562 1.6v12.15L3.469 17.4056V5.2554Zm1.386 0 4.7622 1.3144v3.5622c-2.1768.3488-3.8718 2.0928-3.8984 4.557-.0083.7704.2868 1.6277.6928 2.5389.1035.2312.216.465.3323.699l-1.889-.5214Zm10.9123 0v12.15l-1.5566.4296c.8286-2.0051.6736-3.1396.6384-3.5078-.1484-1.9626-1.6526-3.9151-3.8357-4.2164v-3.541Zm-5.4663 7.3417c1.1563 0 2.0938.937 2.0938 2.0938 0 1.156-.9375 2.0936-2.0938 2.0936-1.1562 0-2.0937-.9375-2.0937-2.0936 0-1.1568.9375-2.0938 2.0937-2.0938Z"/>
  </g>
</svg>