<svg width="24" height="24" xmlns="http://www.w3.org/2000/svg" viewBox="0 0 24 24" fill="currentColor">
  <path d="m10.5942 10.8372.9869-1.6402.1291-.2135-3.3098-5.502c-.1824-.3024-.5108-.474-.8445-.474a.966.966 0 0 0-.4712.1226.9298.9298 0 0 0-.4512.5843.917.917 0 0 0 .1036.715ZM16.0803 15.357a.9094.9094 0 0 1-.8108-.4656c-.0044-.0083-.011-.019-.0146-.0272l-1.8425-3.0579-.948 1.5764-.1678.2794 1.303 2.1648v.0023c.0046.0083.011.017.0156.0253.181.2814.192.635.026.9186-.511.876-.5064 1.9595.0146 2.8291.3901.652 1.0127 1.1154 1.7541 1.3035.7412.1886 1.5142.0802 2.1763-.3025.6611-.3832 1.1286-.9945 1.3205-1.7249.1917-.7298.082-1.4874-.308-2.137-.5237-.872-1.4893-1.4008-2.5184-1.3837Zm1.7317 3.2396c-.1162.4426-.3984.8128-.7995 1.0434a1.7475 1.7475 0 0 1-.8807.237c-.5947 0-1.1748-.2984-1.4975-.8378-.237-.3918-.3015-.8507-.1883-1.2933.1172-.4422.3995-.8124.7996-1.043.8254-.478 1.8923-.2097 2.3792.6008.235.3938.3015.853.1872 1.2929Z"/>
  <path d="M10.3933 15.85c.0064-.0083.011-.017.0156-.0254l1.3787-2.2897 1.409-2.3381 4.0751-6.765c.1309-.218.1678-.472.1033-.7156-.0647-.247-.2268-.4546-.451-.5837-.4545-.2564-1.0448-.0995-1.3141.3514l-3.3907 5.6223-1.4101 2.3382-2.0571 3.4174a.1918.1918 0 0 0-.015.0277.9124.9124 0 0 1-.7949.4653h-.0627c-1.0125 0-1.9568.527-2.4712 1.3841-.3901.6474-.5 1.4072-.3081 2.1371.1919.7303.6611 1.3418 1.3206 1.7249.664.3826 1.4367.4906 2.1762.3024.7415-.1886 1.3638-.652 1.754-1.3034a2.7833 2.7833 0 0 0 .0148-2.8291c-.166-.286-.155-.6372.0276-.9208Zm-1.0207 3.191c-.2371.3915-.6143.671-1.0625.7853a1.8005 1.8005 0 0 1-.4351.0548 1.7416 1.7416 0 0 1-.9915-.3088 1.6928 1.6928 0 0 1-.6887-.9757c-.1172-.4422-.0498-.9014.187-1.2929.2371-.3914.6143-.6709 1.0625-.7848.45-.1142.9175-.0488 1.316.184.3991.233.683.6032.7976 1.043.1179.4444.0515.9038-.1853 1.2951Z"/>
</svg>