<svg width="24" height="24" xmlns="http://www.w3.org/2000/svg" viewBox="0 0 24 24" fill="none"><path fill="#ced4da" d="M11.8518 9.5846c-1.4773 1.7495-4.0933 1.9706-5.8428.4932a4.1456 4.1456 0 0 1-1.456-2.819 4.1437 4.1437 0 0 1 .9634-3.0233c1.4763-1.7495 4.0925-1.9701 5.842-.4932a4.1468 4.1468 0 0 1 1.457 2.819 4.1504 4.1504 0 0 1-.9636 3.0233ZM19.449 14.5632c-1.149 1.361-3.1836 1.5326-4.5447.3838a3.2253 3.2253 0 0 1-1.134-2.1932 3.225 3.225 0 0 1 .7502-2.352c1.1487-1.3612 3.1834-1.5333 4.5444-.384a3.2237 3.2237 0 0 1 .384 4.5454ZM11.4023 19.5925c-1.5703 1.8604-4.3513 2.0952-6.2116.5246a4.405 4.405 0 0 1-1.5484-2.9969 4.403 4.403 0 0 1 1.0242-3.2143c1.5706-1.8604 4.3506-2.0952 6.211-.5248 1.8603 1.5707 2.0956 4.3512.5248 6.2114Z" class="fills"/></svg>